<svg id="Layer_5" enable-background="new 0 0 64 64" height="512" viewBox="0 0 64 64" width="512" xmlns="http://www.w3.org/2000/svg"><g><g><g><path d="m43 22v6h-27c1.1 0 2-.9 2-2v-4z" fill="#fcd770"/></g><g><path d="m18 22v4c0 1.1-.9 2-2 2h-1-11c-1.1 0-2-.9-2-2v-4c0-1.1.9-2 2-2h12c1.1 0 2 .9 2 2z" fill="#ffc729"/></g><g><path d="m4 36v-8h11 1 27v10h-2l-3 4h-4v4h2v4h-16.41c.27-.95.41-1.96.41-3 0-6.08-4.92-11-11-11-1.8 0-3.5.43-5 1.2z" fill="#ffeaa7"/></g><g><path d="m16 47c0-3.87-3.13-7-7-7-1.96 0-3.73.8-5 2.1v-4.9c1.5-.77 3.2-1.2 5-1.2 6.08 0 11 4.92 11 11 0 1.04-.14 2.05-.41 3h-4.27c.44-.91.68-1.92.68-3z" fill="#fcd770"/></g><g><path d="m16 47c0 1.08-.24 2.09-.68 3-1.12 2.37-3.52 4-6.32 4-3.87 0-7-3.13-7-7 0-1.92.76-3.64 2-4.9 1.27-1.3 3.04-2.1 5-2.1 3.87 0 7 3.13 7 7z" fill="#969faa"/></g><g><circle cx="9" cy="47" fill="#ccd1d9" r="3"/></g><g><circle cx="33" cy="5" fill="#69d6f4" r="3"/></g><g><circle cx="14" cy="9" fill="#69d6f4" r="3"/></g><g><circle cx="25" cy="15" fill="#69d6f4" r="3"/></g><g><path d="m42.11 6.43c-.07-.29-.11-.58-.11-.87 0-1.97 1.59-3.56 3.56-3.56h.88c.98 0 1.88.4 2.52 1.04s1.04 1.54 1.04 2.52c0 .29-.04.58-.11.87l-.89 3.57h-6z" fill="#d3a06c"/></g><g><path d="m49 10v28h-6v-10-6-12z" fill="#cf9e76"/></g><g><path d="m51 38 3 4h-16l3-4h2 6z" fill="#aab2bd"/></g><g><path d="m58 42v4h-2-4-4-4-4-4-2v-4h4 16z" fill="#aab2bd"/></g><g><path d="m40 46h4v10h-4z" fill="#ccd1d9"/></g><g><path d="m48 46h4v10h-4z" fill="#ccd1d9"/></g><g><path d="m52 46h4v10h-4z" fill="#e6e9ed"/></g><g><path d="m44 46h4v10h-4z" fill="#e6e9ed"/></g><g><path d="m40 46v10h-4v-2-4-4z" fill="#e6e9ed"/></g><g><path d="m61.12 56.88c.54.54.88 1.29.88 2.12 0 1.66-1.34 3-3 3h-26c-.55 0-1.05-.22-1.41-.59-.37-.36-.59-.86-.59-1.41 0-1.1-.9-2-2-2h-9c-.55 0-1.05-.22-1.41-.59-.37-.36-.59-.86-.59-1.41 0-1.1.9-2 2-2h16v2h4 4 4 4 4 3c.83 0 1.58.34 2.12.88z" fill="#69d6f4"/></g></g><g><path d="m59 55h-2v-8h2v-6h-4.5l-3-4h-1.5v-26.877l.864-3.455c.09-.361.136-.733.136-1.106 0-2.516-2.046-4.562-4.562-4.562h-.877c-2.515 0-4.561 2.046-4.561 4.562 0 .373.046.745.136 1.106l.864 3.455v10.877h-23.184c-.414-1.161-1.514-2-2.816-2h-12c-1.654 0-3 1.346-3 3v4c0 1.302.839 2.402 2 2.816v12.911c-1.241 1.409-2 3.252-2 5.273 0 4.411 3.589 8 8 8 2.953 0 5.532-1.613 6.918-4h19.082v2h-15c-1.654 0-3 1.346-3 3s1.346 3 3 3h9c.551 0 1 .448 1 1 0 1.654 1.346 3 3 3h26c2.206 0 4-1.794 4-4s-1.794-4-4-4zm-22-8h2v8h-2zm4 0h2v8h-2zm4 0h2v8h-2zm4 0h2v8h-2zm4 0h2v8h-2zm4-2h-22v-2h22zm-5-4h-12l1.5-2h9zm-8-4v-26h4.029l-.027 26zm1.562-34h.877c1.412 0 2.561 1.149 2.561 2.562 0 .209-.026.418-.077.622l-.704 2.816h-4.461l-.681-2.816c-.051-.205-.077-.413-.077-.622 0-1.413 1.149-2.562 2.562-2.562zm-3.562 24h-23.184c.112-.314.184-.648.184-1v-3h23zm-39-5c0-.552.449-1 1-1h12c.551 0 1 .448 1 1v4c0 .552-.449 1-1 1h-1-11c-.551 0-1-.448-1-1zm6 31c-3.309 0-6-2.691-6-6s2.691-6 6-6 6 2.691 6 6-2.691 6-6 6zm0-14c-1.458 0-2.822.398-4 1.082v-2.232c1.261-.553 2.601-.85 4-.85 5.514 0 10 4.486 10 10 0 .677-.091 1.343-.224 2h-2.039c.166-.641.263-1.308.263-2 0-4.411-3.589-8-8-8zm11.827 10c.11-.659.173-1.327.173-2 0-6.617-5.383-12-12-12-1.363 0-2.72.243-4 .694v-6.694h10 1 26v8h-1.5l-3 4h-4.5v6h2v2zm38.173 12h-26c-.551 0-1-.448-1-1 0-1.654-1.346-3-3-3h-9c-.551 0-1-.448-1-1s.449-1 1-1h15v2h21 1 2c1.103 0 2 .897 2 2s-.897 2-2 2z"/><path d="m9 43c-2.206 0-4 1.794-4 4s1.794 4 4 4 4-1.794 4-4-1.794-4-4-4zm0 6c-1.103 0-2-.897-2-2s.897-2 2-2 2 .897 2 2-.897 2-2 2z"/><path d="m7 31h2v2h-2z"/><path d="m15 31h2v2h-2z"/><path d="m11 31h2v2h-2z"/><circle cx="46" cy="6" r="1"/><path d="m25 19c2.206 0 4-1.794 4-4s-1.794-4-4-4-4 1.794-4 4 1.794 4 4 4zm0-6c1.103 0 2 .897 2 2s-.897 2-2 2-2-.897-2-2 .897-2 2-2z"/><path d="m14 13c2.206 0 4-1.794 4-4s-1.794-4-4-4-4 1.794-4 4 1.794 4 4 4zm0-6c1.103 0 2 .897 2 2s-.897 2-2 2-2-.897-2-2 .897-2 2-2z"/><path d="m33 9c2.206 0 4-1.794 4-4s-1.794-4-4-4-4 1.794-4 4 1.794 4 4 4zm0-6c1.103 0 2 .897 2 2s-.897 2-2 2-2-.897-2-2 .897-2 2-2z"/></g></g></svg>