<svg id="Capa_1" enable-background="new 0 0 512 512" height="512" viewBox="0 0 512 512" width="512" xmlns="http://www.w3.org/2000/svg"><g><g id="Filled_43_"><path d="m60 471h140v30h-140z" fill="#faef93"/><path d="m312 471h140v30h-140z" fill="#faef93"/><path d="m40 471h180l14.783-170h-209.566z" fill="#e46a4a"/><path d="m20 241 5.217 60h209.566l5.217-60z" fill="#faef93"/><path d="m277.217 301 14.783 170h180l14.783-170z" fill="#e46a4a"/><path d="m492 241h-220l5.217 60h209.566z" fill="#faef93"/><path d="m366 11h-220l5.217 60h209.566z" fill="#faef93"/><path d="m346 241 14.783-170h-209.566l14.783 170z" fill="#e46a4a"/><path d="m37.391 441 2.609 30h180l2.609-30z" fill="#db380e"/><path d="m289.391 441 2.609 30h180l2.609-30z" fill="#db380e"/><path d="m163.391 211 2.609 30h180l2.609-30z" fill="#db380e"/><g fill="#faef93"><path d="m291 211h-70c-11.046 0-20-8.954-20-20v-70c0-11.046 8.954-20 20-20h70c11.046 0 20 8.954 20 20v70c0 11.046-8.954 20-20 20z"/><path d="m165 441h-70c-11.046 0-20-8.954-20-20v-70c0-11.046 8.954-20 20-20h70c11.046 0 20 8.954 20 20v70c0 11.046-8.954 20-20 20z"/><path d="m417 441h-70c-11.046 0-20-8.954-20-20v-70c0-11.046 8.954-20 20-20h70c11.046 0 20 8.954 20 20v70c0 11.046-8.954 20-20 20z"/></g></g><g id="Outline_43_"><path d="m465.124 463.5h-166.248l-13.478-155h36.383v-15h-37.687l-3.913-45h116.819v-15h-42.82l18.696-215h13.124v-15h-85v15h56.82l-3.913 45h-143.127v15h141.822l-13.478 155h-166.248l-13.478-155h36.383v-15h-37.687l-3.913-45h131.819v-15h-160v15h13.124l18.696 215h-60.82v15h134.82l-3.913 45h-143.127v15h141.822l-13.478 155h-166.248l-13.478-155h36.382v-15h-37.687l-3.913-45h53.82v-15h-82v15h13.124l20 230h19.376v30h155v-30h19.376l20-230h18.248l20 230h19.376v30h155v-30h19.376l5.719-65.761-14.943-1.299zm-272.624 30h-125v-15h125zm252 0h-125v-15h125z"/><path d="m412 233.5v15h71.82l-3.914 45h-143.126v15h141.822l-7.652 87.997 14.944 1.299 12.982-149.296h13.124v-15z"/><path d="m193.5 191c0 15.163 12.337 27.5 27.5 27.5h70c15.163 0 27.5-12.337 27.5-27.5v-70c0-15.163-12.337-27.5-27.5-27.5h-70c-15.163 0-27.5 12.337-27.5 27.5zm88.15-66.736c3.364-3.854 7.349-8.441 9.031-15.764h.319c6.893 0 12.5 5.607 12.5 12.5v70c0 6.893-5.607 12.5-12.5 12.5h-13.809c1.075-2.022 2.61-3.783 4.46-5.902 4.389-5.028 9.85-11.286 9.85-23.266s-5.461-18.238-9.85-23.267c-3.703-4.244-6.15-7.048-6.15-13.402-.001-6.352 2.445-9.156 6.149-13.399zm-40 0c3.364-3.854 7.349-8.441 9.031-15.764h24.128c-1.075 2.022-2.61 3.782-4.459 5.9-4.389 5.027-9.85 11.284-9.85 23.263s5.461 18.237 9.849 23.266c3.704 4.244 6.151 7.048 6.151 13.403 0 6.354-2.447 9.158-6.15 13.402-3.364 3.854-7.349 8.442-9.031 15.766h-24.128c1.075-2.022 2.61-3.783 4.46-5.902 4.389-5.028 9.85-11.286 9.85-23.266s-5.461-18.238-9.85-23.267c-3.703-4.244-6.15-7.048-6.15-13.402-.001-6.352 2.445-9.156 6.149-13.399zm-33.15-3.264c0-6.893 5.607-12.5 12.5-12.5h13.809c-1.075 2.022-2.61 3.782-4.459 5.9-4.389 5.027-9.85 11.284-9.85 23.263s5.461 18.237 9.849 23.266c3.704 4.244 6.151 7.048 6.151 13.403 0 6.354-2.447 9.158-6.15 13.402-3.364 3.854-7.349 8.442-9.031 15.766h-.319c-6.893 0-12.5-5.607-12.5-12.5z"/><path d="m67.5 351v70c0 15.163 12.337 27.5 27.5 27.5h70c15.163 0 27.5-12.337 27.5-27.5v-70c0-15.163-12.337-27.5-27.5-27.5h-70c-15.163 0-27.5 12.337-27.5 27.5zm88.15 3.264c3.364-3.854 7.349-8.441 9.031-15.764h.319c6.893 0 12.5 5.607 12.5 12.5v70c0 6.893-5.607 12.5-12.5 12.5h-13.809c1.075-2.022 2.61-3.783 4.46-5.902 4.389-5.028 9.85-11.286 9.85-23.266s-5.461-18.238-9.85-23.267c-3.703-4.244-6.15-7.048-6.15-13.402-.001-6.352 2.445-9.156 6.149-13.399zm-40 0c3.364-3.854 7.349-8.441 9.031-15.764h24.128c-1.075 2.022-2.61 3.782-4.459 5.9-4.389 5.027-9.85 11.284-9.85 23.263s5.461 18.237 9.849 23.266c3.704 4.244 6.151 7.048 6.151 13.403 0 6.354-2.447 9.158-6.15 13.402-3.364 3.854-7.349 8.442-9.031 15.766h-24.128c1.075-2.022 2.61-3.783 4.46-5.902 4.389-5.028 9.85-11.286 9.85-23.266s-5.461-18.238-9.85-23.267c-3.703-4.244-6.15-7.048-6.15-13.402-.001-6.352 2.445-9.156 6.149-13.399zm-33.15-3.264c0-6.893 5.607-12.5 12.5-12.5h13.809c-1.075 2.022-2.61 3.782-4.459 5.9-4.389 5.027-9.85 11.284-9.85 23.263s5.461 18.237 9.849 23.266c3.704 4.244 6.151 7.048 6.151 13.403 0 6.354-2.447 9.158-6.15 13.402-3.364 3.854-7.349 8.442-9.031 15.766h-.319c-6.893 0-12.5-5.607-12.5-12.5z"/><path d="m319.5 421c0 15.163 12.337 27.5 27.5 27.5h70c15.163 0 27.5-12.337 27.5-27.5v-70c0-15.163-12.337-27.5-27.5-27.5h-70c-15.163 0-27.5 12.337-27.5 27.5zm88.15-66.736c3.364-3.854 7.349-8.441 9.031-15.764h.319c6.893 0 12.5 5.607 12.5 12.5v70c0 6.893-5.607 12.5-12.5 12.5h-13.809c1.075-2.022 2.61-3.783 4.46-5.902 4.389-5.028 9.85-11.286 9.85-23.266s-5.461-18.238-9.85-23.267c-3.703-4.244-6.15-7.048-6.15-13.402-.001-6.352 2.445-9.156 6.149-13.399zm-40 0c3.364-3.854 7.349-8.441 9.031-15.764h24.128c-1.075 2.022-2.61 3.782-4.459 5.9-4.389 5.027-9.85 11.284-9.85 23.263s5.461 18.237 9.849 23.266c3.704 4.244 6.151 7.048 6.151 13.403 0 6.354-2.447 9.158-6.15 13.402-3.364 3.854-7.349 8.442-9.031 15.766h-24.128c1.075-2.022 2.61-3.783 4.46-5.902 4.389-5.028 9.85-11.286 9.85-23.266s-5.461-18.238-9.85-23.267c-3.703-4.244-6.15-7.048-6.15-13.402-.001-6.352 2.445-9.156 6.149-13.399zm-33.15-3.264c0-6.893 5.607-12.5 12.5-12.5h13.809c-1.075 2.022-2.61 3.782-4.459 5.9-4.389 5.027-9.85 11.284-9.85 23.263s5.461 18.237 9.849 23.266c3.704 4.244 6.151 7.048 6.151 13.403 0 6.354-2.447 9.158-6.15 13.402-3.364 3.854-7.349 8.442-9.031 15.766h-.319c-6.893 0-12.5-5.607-12.5-12.5z"/></g><g fill="#fff"><path d="m331 48.5h-15v-15h15zm-45 0h-15v-15h15zm-45 0h-15v-15h15zm-45 0h-15v-15h15z"/><path d="m205 278.5h-15v-15h15zm-45 0h-15v-15h15zm-45 0h-15v-15h15zm-45 0h-15v-15h15z"/><path d="m457 278.5h-15v-15h15zm-45 0h-15v-15h15zm-45 0h-15v-15h15zm-45 0h-15v-15h15z"/></g></g></svg>