<?xml version="1.0" encoding="iso-8859-1"?>
<!-- Generator: Adobe Illustrator 19.0.0, SVG Export Plug-In . SVG Version: 6.00 Build 0)  -->
<svg version="1.1" id="Capa_1" xmlns="http://www.w3.org/2000/svg" xmlns:xlink="http://www.w3.org/1999/xlink" x="0px" y="0px"
	 viewBox="0 0 496 496" style="enable-background:new 0 0 496 496;" xml:space="preserve">
<path style="fill:#EABD8C;" d="M136,408v-32l18.744-18.744C183.72,328.28,200,288.976,200,248s-16.28-80.28-45.256-109.256L136,120
	V88l48.488-41.56C189.256,42.352,192,36.384,192,30.104c0-12.112-9.992-21.832-22.096-21.512L168,8.64
	C151.984,8.64,151.984,24,135.976,24C119.96,24,119.96,8.64,103.952,8.64C87.96,8.64,87.96,24,71.968,24
	C55.984,24,55.984,8.64,40,8.64l-1.904-0.048C25.992,8.264,16,17.992,16,30.104c0,6.28,2.744,12.248,7.512,16.336L72,88v32
	l-18.744,18.744C24.28,167.72,8,207.024,8,248s16.28,80.28,45.256,109.256L72,376v32l-48.488,41.56
	C18.744,453.648,16,459.616,16,465.896c0,12.112,9.992,21.832,22.096,21.512L40,487.36c15.984,0,15.984-15.36,31.968-15.36
	s15.984,15.36,31.976,15.36c16.016,0,16.016-15.36,32.024-15.36c16.016,0,16.016,15.36,32.024,15.36l1.904,0.048
	c12.112,0.328,22.104-9.4,22.104-21.512c0-6.28-2.744-12.248-7.512-16.336L136,408z"/>
<g>
	<path style="fill:#D3A06C;" d="M169.904,8.592L168,8.64C151.984,8.64,151.984,24,135.976,24c-16,0-16.024-15.312-31.976-15.352V88
		h32l48.488-41.56C189.256,42.352,192,36.384,192,30.104C192,17.992,182.008,8.264,169.904,8.592z"/>
	<path style="fill:#D3A06C;" d="M136,408h-32v79.352c15.952-0.04,15.976-15.352,31.976-15.352c16.016,0,16.016,15.36,32.024,15.36
		l1.904,0.048c12.104,0.328,22.096-9.4,22.096-21.512c0-6.28-2.744-12.248-7.512-16.336L136,408z"/>
	<path style="fill:#D3A06C;" d="M154.744,138.744L136,120h-24l18.744,18.744C159.72,167.72,176,207.024,176,248
		s-16.28,80.28-45.256,109.256L112,376h24l18.744-18.744C183.72,328.28,200,288.976,200,248S183.72,167.72,154.744,138.744z"/>
</g>
<path style="fill:#FB5968;" d="M192,200h-8.808c-50.584,0-99.096-20.056-134.928-55.744c-9.976,10.992-18.24,23.24-24.624,36.408
	c1.256,1.424,28.392,31.76,75.064,49.344C146.496,248,200,248,200,248c0-16.464-2.744-32.624-7.768-47.984
	C192.152,200.016,192.08,200,192,200z"/>
<path style="fill:#CD2C5A;" d="M192.232,200.016c-0.08,0-0.152-0.016-0.232-0.016h-8.808c-5.096,0-10.168-0.256-15.208-0.664
	c5.032,15.144,7.8,31.064,7.944,47.304C190.464,247.984,200,248,200,248C200,231.536,197.256,215.376,192.232,200.016z"/>
<path style="fill:#FB5968;" d="M159.504,352c12.944-14.192,23.056-30.488,29.904-48.128c-1.816,0.04-3.536,0.064-5.408,0.128
	c0,0-33.912,1.64-76.616-10.744c-53.968-15.648-97.144-56.224-97.144-56.224c-0.56-0.488-1.08-0.904-1.624-1.36
	C8.28,239.768,8,243.864,8,248c0,16.368,2.704,32.432,7.672,47.72c0.112,0.088,0.216,0.184,0.328,0.28
	c35.856,35.856,84.488,56,135.192,56H159.504z"/>
<path style="fill:#CD2C5A;" d="M165.52,303.552c-6.744,17.496-16.688,33.672-29.424,47.8c5.008,0.392,10.04,0.648,15.096,0.648
	h8.312c12.944-14.192,23.056-30.488,29.904-48.128c-1.816,0.04-3.536,0.064-5.408,0.128C184,304,177.04,304.32,165.52,303.552z"/>
<rect x="72" y="376" style="fill:#FCD770;" width="64" height="32"/>
<rect x="112" y="376" style="fill:#FFC729;" width="24" height="32"/>
<rect x="72" y="88" style="fill:#FCD770;" width="64" height="32"/>
<rect x="112" y="88" style="fill:#FFC729;" width="24" height="32"/>
<polygon style="fill:#FB5968;" points="248,392 248,456 277.992,424 307.976,456 337.968,424 367.944,456 397.928,424 427.92,456 
	457.96,424 488,456 488,392 488,104 488,40 457.96,72 427.92,40 397.928,72 367.944,40 337.968,72 307.976,40 277.992,72 248,40 
	248,104 "/>
<polygon style="fill:#CD2C5A;" points="464,430.432 488,456 488,392 488,104 488,40 464,65.568 "/>
<rect x="248" y="104" style="fill:#ECECEC;" width="240" height="288"/>
<rect x="464" y="104" style="fill:#B6C1CE;" width="24" height="288"/>
<path style="fill:#FEA82F;" d="M368,320L368,320c-30.928,0-56-25.072-56-56v-32c0-30.928,25.072-56,56-56l0,0
	c30.928,0,56,25.072,56,56v32C424,294.928,398.928,320,368,320z"/>
<path d="M160.4,362.912C191.096,332.216,208,291.408,208,248s-16.904-84.216-47.6-114.912l-16.4-16.4V91.68l45.688-39.16
	C196.24,46.904,200,38.736,200,30.104c0-8.032-3.168-15.544-8.928-21.152S177.488,0.344,169.696,0.6L168,0.64
	c-11.224,0-17.192,5.728-21.552,9.904c-3.952,3.784-5.88,5.456-10.48,5.456c-4.592,0-6.528-1.672-10.472-5.456
	c-4.36-4.176-10.328-9.904-21.552-9.904c-11.216,0-17.176,5.728-21.528,9.912C78.48,14.328,76.544,16,71.968,16
	s-6.504-1.672-10.44-5.448c-4.36-4.184-10.312-9.904-21.312-9.904c0,0,0,0-0.008,0l-1.904-0.056
	c-7.792-0.248-15.616,2.752-21.376,8.36S8,22.064,8,30.104c0,8.632,3.76,16.8,10.312,22.416L64,91.68v25.008l-16.4,16.4
	C16.904,163.784,0,204.592,0,248s16.904,84.216,47.6,114.912l16.4,16.4v25.008l-45.688,39.16C11.76,449.096,8,457.264,8,465.896
	c0,8.032,3.168,15.544,8.928,21.152c5.56,5.416,12.832,8.368,20.56,8.368c0.272,0,0.544,0,0.816-0.008L40,495.36
	c11.208,0,17.168-5.728,21.528-9.912c3.936-3.776,5.864-5.448,10.44-5.448s6.504,1.672,10.448,5.448
	c4.352,4.176,10.312,9.912,21.528,9.912c11.224,0,17.192-5.728,21.552-9.904c3.944-3.784,5.88-5.456,10.472-5.456
	c4.6,0,6.528,1.672,10.48,5.456c4.36,4.176,10.328,9.904,21.336,9.904c0,0,0,0,0.008,0l1.904,0.048
	c7.792,0.248,15.616-2.752,21.376-8.352s8.928-13.12,8.928-21.16c0-8.632-3.76-16.8-10.312-22.416L144,404.32v-25.008L160.4,362.912
	z M80,400v-16h48v16H80z M180.928,191.936c-28.152-0.352-56.208-7.248-81.28-20.096l-7.296,14.24
	c27.992,14.344,59.408,21.92,90.84,21.92h3.192c2.92,10.336,4.632,21.056,5.224,31.992c-58.56-0.096-114.92-21.16-159.208-59.336
	c4.576-8.824,10.032-17.224,16.408-25.04c5.912,5.408,12.04,10.592,18.536,15.232l9.296-13.016
	c-5.992-4.288-11.648-9.072-17.104-14.064L75.312,128h57.376l16.4,16.4C162.928,158.248,173.656,174.376,180.928,191.936z M128,96
	v16H80V96H128z M24,30.104c0-3.68,1.456-7.12,4.088-9.688c2.648-2.568,6.16-4,9.8-3.832L40,16.64c4.576,0,6.504,1.672,10.448,5.448
	C54.8,26.272,60.76,32,71.968,32s17.168-5.728,21.52-9.912c3.936-3.776,5.864-5.448,10.456-5.448c4.6,0,6.536,1.672,10.48,5.456
	c4.36,4.176,10.328,9.904,21.544,9.904c11.224,0,17.192-5.728,21.552-9.904c3.944-3.784,5.872-5.456,10.688-5.456l1.904-0.048
	c3.712-0.168,7.16,1.256,9.8,3.832c2.632,2.56,4.088,6,4.088,9.68c0,3.952-1.72,7.696-4.72,10.264L133.04,80h-0.096l10.208-20.424
	l-14.312-7.16L115.056,80H112V40H96v40h-3.056L79.152,52.424L64.84,59.576L75.056,80H74.96L28.72,40.368
	C25.72,37.8,24,34.056,24,30.104z M25.648,195.904c46.616,38.712,105.176,60,165.96,60.088c-0.744,13.8-3.368,27.224-7.792,40.008
	h-8.624c-48.928,0-94.936-19.056-129.536-53.656l-11.312,11.312C71.968,291.28,121.992,312,175.192,312h1.984
	c-5.584,11.456-12.664,22.2-21.2,32h-4.784C102.6,344,56.92,325.168,22.4,291.024C18.2,277.256,16,262.8,16,248
	C16,229.888,19.4,212.336,25.648,195.904z M37.68,324.488c30.336,21.136,65.84,33.368,103.272,35.248L132.688,368H75.312l-16.4-16.4
	C50.656,343.344,43.648,334.192,37.68,324.488z M184,465.896c0,3.68-1.456,7.12-4.088,9.688c-2.64,2.568-6.096,3.984-9.8,3.832
	L168,479.36c-4.6,0-6.528-1.672-10.48-5.456c-4.352-4.176-10.328-9.904-21.552-9.904c-11.216,0-17.184,5.728-21.544,9.904
	c-3.936,3.784-5.872,5.456-10.48,5.456c-4.584,0-6.512-1.672-10.456-5.448C89.144,469.728,83.176,464,71.968,464
	s-17.168,5.728-21.52,9.912c-3.936,3.776-5.864,5.448-10.656,5.456l-1.904,0.048c-3.632,0.168-7.152-1.256-9.8-3.832
	c-2.632-2.568-4.088-6.008-4.088-9.688c0-3.952,1.72-7.696,4.72-10.264L74.96,416h0.096l-10.208,20.424l14.312,7.16L92.944,416H96
	v40h16v-40h3.056l13.792,27.576l14.312-7.16L132.944,416h0.096l46.24,39.632C182.28,458.2,184,461.944,184,465.896z"/>
<path d="M432,232c0-35.288-28.712-64-64-64s-64,28.712-64,64v32c0,35.288,28.712,64,64,64s64-28.712,64-64V232z M416,232v8h-16v-8
	c0-4.424-0.904-8.64-2.536-12.48l0.192,0.192l11.8-11.8C413.592,215.008,416,223.216,416,232z M368,280c-8.824,0-16-7.176-16-16v-32
	c0-8.824,7.176-16,16-16s16,7.176,16,16v32C384,272.824,376.824,280,368,280z M348.264,207.008l-11.44-11.432
	c6.472-5.544,14.424-9.376,23.176-10.848v16.416C355.648,202.264,351.688,204.288,348.264,207.008z M376,201.136V184.72
	c8.752,1.48,16.704,5.304,23.176,10.848L387.736,207C384.312,204.288,380.352,202.264,376,201.136z M412.696,281.376l-13.128-13.12
	c0.192-1.408,0.432-2.8,0.432-4.256v-8h16v8C416,270.136,414.8,275.984,412.696,281.376z M320,232c0-8.784,2.408-16.992,6.544-24.08
	l11.8,11.8l0.192-0.192C336.904,223.36,336,227.576,336,232v8h-16V232z M320,256h16v8c0,1.456,0.24,2.848,0.432,4.256l-13.128,13.12
	C321.2,275.984,320,270.136,320,264V256z M331.84,295.472l11.424-11.416c4.24,5.224,10.032,9.072,16.736,10.816v16.416
	C348.832,309.392,338.976,303.664,331.84,295.472z M376,311.28v-16.416c6.704-1.744,12.496-5.592,16.736-10.816l11.424,11.416
	C397.024,303.664,387.168,309.392,376,311.28z"/>
<path d="M457.96,60.312l-30.048-32.008l-29.984,32l-29.984-32l-29.984,32l-29.984-32l-29.992,32L240,19.76V96v8v288v8v76.24
	l37.984-40.536l29.992,32l29.984-32l29.984,32l29.984-32l29.984,32l30.048-32.008L496,476.208V400v-8V104v-8V19.792L457.96,60.312z
	 M480,435.792l-22.04-23.48l-30.032,31.992l-30-32l-29.984,32l-29.984-32l-29.984,32l-29.992-32L256,435.76V400h192v-16H256V112h224
	v272h-16v16h16V435.792z M256,96V60.24l21.984,23.464l29.992-32l29.984,32l29.984-32l29.984,32l30-32l30.032,31.992L480,60.208V96
	H256z"/>
<rect x="280" y="128" width="32" height="16"/>
<rect x="280" y="160" width="32" height="16"/>
<rect x="416" y="320" width="48" height="16"/>
<rect x="416" y="352" width="48" height="16"/>
<g>
</g>
<g>
</g>
<g>
</g>
<g>
</g>
<g>
</g>
<g>
</g>
<g>
</g>
<g>
</g>
<g>
</g>
<g>
</g>
<g>
</g>
<g>
</g>
<g>
</g>
<g>
</g>
<g>
</g>
</svg>
