<svg height="512" viewBox="0 0 64 64" width="512" xmlns="http://www.w3.org/2000/svg"><g id="kitchen-broom-microwave-refrigerator-clean"><path d="m39 27h22v28h-22z" fill="#898890"/><path d="m39 11h22v16h-22z" fill="#c6c5ca"/><path d="m56 27h5v28h-5z" fill="#57565c"/><path d="m56 11h5v16h-5z" fill="#898890"/><path d="m57 55 3 6h-4l-4-8h4z" fill="#fee9ab"/><path d="m56 49v4h-4-2-2-4v-4h4 4z" fill="#ff7956"/><path d="m52 53 4 8h-6v-8z" fill="#c0ab91"/><path d="m52 32v17h-4v-17a2.006 2.006 0 0 1 2-2 2.015 2.015 0 0 1 2 2z" fill="#c0ab91"/><path d="m50 53v8h-6l4-8z" fill="#fee9ab"/><path d="m48 53-4 8h-4l3-6 1-2z" fill="#c0ab91"/><path d="m3 57h32v4h-32z" fill="#a78966"/><path d="m3 33h32v4h-32z" fill="#a78966"/><path d="m24 47h10v10h-10z" fill="#fee9ab"/><path d="m24 37h10v10h-10z" fill="#c0ab91"/><path d="m3 11h30v8h-30z" fill="#e0e0e2"/><path d="m19 23h6v10h-6z" fill="#e0e0e2"/><path d="m24 47v10h-10v-20h10z" fill="#fee9ab"/><path d="m19 15h4v4h-4z" fill="#57a4ff"/><path d="m19 5h4v6h-4z" fill="#9cdd05"/><path d="m5 23h14v10h-14z" fill="#46f8ff"/><path d="m7 15h8v4h-8z" fill="#ffde55"/><path d="m7 7h8v4h-8z" fill="#ff3051"/><path d="m4 37h10v20h-10z" fill="#c0ab91"/><path d="m52 32v17h-2v-17a1.955 1.955 0 0 0 -.59-1.41 1.813 1.813 0 0 0 -.41-.32 2 2 0 0 1 1-.27 2.015 2.015 0 0 1 2 2z" fill="#a78966"/><path d="m29 11h4v8h-4z" fill="#acabb1"/><path d="m30 37h4v10h-4z" fill="#a78966"/><path d="m30 47h4v10h-4z" fill="#ffde55"/><path d="m31 33h4v4h-4z" fill="#806749"/><path d="m31 57h4v4h-4z" fill="#806749"/><path d="m36 37v-4a1 1 0 0 0 -1-1h-9v-9a1 1 0 0 0 -1-1h-20a1 1 0 0 0 -1 1v9h-1a1 1 0 0 0 -1 1v4a1 1 0 0 0 1 1v18a1 1 0 0 0 -1 1v4a1 1 0 0 0 1 1h32a1 1 0 0 0 1-1v-4a1 1 0 0 0 -1-1v-18a1 1 0 0 0 1-1zm-16-13h4v8h-4zm-14 0h12v8h-12zm28 36h-30v-2h30zm-29-4v-18h8v18zm10 0v-18h8v18zm18-8v8h-8v-8zm-8-2v-8h8v8zm9-10h-30v-2h30z"/><path d="m8 27h4v2h-4z" transform="matrix(.707 -.707 .707 .707 -16.87 15.272)"/><path d="m12 27h4v2h-4z" transform="matrix(.707 -.707 .707 .707 -15.698 18.101)"/><path d="m21 29h2v2h-2z"/><path d="m21 25h2v2h-2z"/><path d="m9 46h2v2h-2z"/><path d="m17 46h2v2h-2z"/><path d="m27 41h4v2h-4z"/><path d="m27 51h4v2h-4z"/><path d="m61 10h-22a1 1 0 0 0 -1 1v44a1 1 0 0 0 1 1h2.38l-2.27 4.55a1 1 0 0 0 .89 1.45h20a1 1 0 0 0 .89-1.45l-2.27-4.55h2.38a1 1 0 0 0 1-1v-44a1 1 0 0 0 -1-1zm-19.38 50 3-6h1.76l-3 6zm13.38-10v2h-10v-2zm-6-2v-16a1 1 0 0 1 2 0v16zm0 12h-3.38l3-6h.38zm2 0v-6h.38l3 6zm5.62 0-3-6h1.76l3 6zm3.38-6h-2.38l-.62-1.24v-3.76a1 1 0 0 0 -1-1h-3v-16a3 3 0 0 0 -6 0v16h-3a1 1 0 0 0 -1 1v3.76l-.62 1.24h-2.38v-26h20zm0-28h-20v-14h20z"/><path d="m42 22h4v2h-4z"/><path d="m42 32h2v6h-2z"/><path d="m33 10h-9v-5a1 1 0 0 0 -1-1h-4a1 1 0 0 0 -1 1v5h-2v-3a1 1 0 0 0 -1-1h-8a1 1 0 0 0 -1 1v3h-2v-8h-2v17a1 1 0 0 0 1 1h30a1 1 0 0 0 1-1v-8a1 1 0 0 0 -1-1zm-13-4h2v4h-2zm-12 2h6v2h-6zm6 10h-6v-2h6zm8 0h-2v-2h2zm10 0h-8v-3a1 1 0 0 0 -1-1h-4a1 1 0 0 0 -1 1v3h-2v-3a1 1 0 0 0 -1-1h-8a1 1 0 0 0 -1 1v3h-2v-6h28z"/><path d="m30 2h2v2h-2z"/><path d="m28 4h2v2h-2z"/><path d="m30 6h2v2h-2z"/><path d="m32 4h2v2h-2z"/><path d="m58 2h2v2h-2z"/><path d="m56 4h2v2h-2z"/><path d="m58 6h2v2h-2z"/><path d="m60 4h2v2h-2z"/><path d="m44 2h2v2h-2z"/><path d="m42 4h2v2h-2z"/><path d="m44 6h2v2h-2z"/><path d="m46 4h2v2h-2z"/><path d="m32 22h2v2h-2z"/><path d="m30 24h2v2h-2z"/><path d="m32 26h2v2h-2z"/><path d="m34 24h2v2h-2z"/></g></svg>