<svg id="Filled" height="512" viewBox="0 0 512 512" width="512" xmlns="http://www.w3.org/2000/svg"><path d="m232 360c-8.837 0-16-7.641-16-17.067v-238.933h32v238.933c0 9.426-7.163 17.067-16 17.067z" fill="#ffd33a"/><path d="m40 440h112v48h-112z" fill="#ea9f26"/><path d="m152 440h-112l-16-376h144z" fill="#ffd33a"/><path d="m168 64-1.36 32h-141.28l-1.36-32z" fill="#ea9f26"/><path d="m248 24h48v96h-48z" fill="#e1e3e6"/><path d="m232 24h16a16 16 0 0 1 16 16v64a16 16 0 0 1 -16 16h-32a0 0 0 0 1 0 0v-80a16 16 0 0 1 16-16z" fill="#ffd33a"/><path d="m88 232h224v256h-224z" fill="#e1e3e6"/><rect fill="#3397e8" height="320" rx="32" transform="matrix(-1 0 0 -1 800 656)" width="176" x="312" y="168"/><path d="m424 136v-32h-48v32a16 16 0 0 0 -16 16v16h80v-16a16 16 0 0 0 -16-16z" fill="#e1e3e6"/><path d="m376 24h96a0 0 0 0 1 0 0v16a16 16 0 0 1 -16 16h-80a16 16 0 0 1 -16-16 16 16 0 0 1 16-16z" fill="#e1e3e6" transform="matrix(-1 0 0 -1 832 80)"/><path d="m384 56h32v48h-32z" fill="#c3c6c7" transform="matrix(-1 0 0 -1 800 160)"/><ellipse cx="400" cy="240" fill="#266fab" rx="48" ry="32"/><rect fill="#a3d4f7" height="112" rx="32" width="192" x="192" y="328"/><path d="m168 440h240a0 0 0 0 1 0 0v16a32 32 0 0 1 -32 32h-176a32 32 0 0 1 -32-32v-16a0 0 0 0 1 0 0z" fill="#266fab"/><path d="m264 80h32v16h-32z" fill="#e9eef2"/><path d="m264 48h32v16h-32z" fill="#e9eef2"/><path d="m456 160h-8v-8a24.039 24.039 0 0 0 -16-22.624v-25.376a8 8 0 0 0 -8-8v-32h32a24 24 0 0 0 0-48h-80a24.028 24.028 0 0 0 -24 24v16a8 8 0 0 0 8 8h16v32a8 8 0 0 0 -8 8v25.376a24.039 24.039 0 0 0 -16 22.624v8h-8a40.045 40.045 0 0 0 -40 40v24h-48v-96h40a8 8 0 0 0 8-8v-96a8 8 0 0 0 -8-8h-64a24.027 24.027 0 0 0 -24 24v184h-38.8l6.794-159.66a8 8 0 0 0 -7.994-8.34h-144a8 8 0 0 0 -7.993 8.34l15.993 375.828v47.832a8 8 0 0 0 8 8h416a40.045 40.045 0 0 0 40-40v-256a40.045 40.045 0 0 0 -40-40zm-88-112v-8a8.009 8.009 0 0 1 8-8h80a8 8 0 0 1 0 16zm48 64v16h-32v-16zm-24-16v-32h16v32zm-24 56a8.009 8.009 0 0 1 8-8h48a8.009 8.009 0 0 1 8 8v8h-64zm-16 184a24.028 24.028 0 0 1 24 24v48a24.028 24.028 0 0 1 -24 24h-128a24.028 24.028 0 0 1 -24-24v-48a24.028 24.028 0 0 1 24-24zm-81.376-304h17.376v16a8 8 0 0 0 0 16v16a8 8 0 0 0 0 16v16h-17.376a23.889 23.889 0 0 0 1.376-8v-64a23.889 23.889 0 0 0 -1.376-8zm-46.624 8a8.009 8.009 0 0 1 8-8h16a8.009 8.009 0 0 1 8 8v64a8.009 8.009 0 0 1 -8 8h-24zm0 88h16v96h-16zm-191.652-56h127.3l-.681 16h-125.938zm47.652 408h-32v-32h32zm0-248v200h-32.333l-13.958-328h124.582l-5.107 120h-65.184a8 8 0 0 0 -8 8zm64 248v-8a8 8 0 0 0 -16 0v8h-32v-240h32v8a8 8 0 0 0 16 0v-8h160v80h-80a40.045 40.045 0 0 0 -40 40v48a39.788 39.788 0 0 0 8.022 24h-24.022a8 8 0 0 0 -8 8v16a39.788 39.788 0 0 0 8.022 24zm256-24a24.027 24.027 0 0 1 -24 24h-176a24.027 24.027 0 0 1 -24-24v-8h224zm80 0a24.027 24.027 0 0 1 -24 24h-48.022a39.788 39.788 0 0 0 8.022-24v-16a8 8 0 0 0 -8-8h-24.022a39.788 39.788 0 0 0 8.022-24v-48a40.045 40.045 0 0 0 -40-40h-32v-120a24.027 24.027 0 0 1 24-24h112a24.027 24.027 0 0 1 24 24z"/><path d="m400 200c-31.4 0-56 17.57-56 40s24.6 40 56 40 56-17.57 56-40-24.6-40-56-40zm0 64c-21.682 0-40-10.99-40-24s18.318-24 40-24 40 10.99 40 24-18.318 24-40 24z"/><path d="m136 272a8 8 0 0 0 -8 8v16a8 8 0 0 0 16 0v-16a8 8 0 0 0 -8-8z"/><path d="m136 320a8 8 0 0 0 -8 8v16a8 8 0 0 0 16 0v-16a8 8 0 0 0 -8-8z"/><path d="m136 368a8 8 0 0 0 -8 8v16a8 8 0 0 0 16 0v-16a8 8 0 0 0 -8-8z"/><path d="m136 416a8 8 0 0 0 -8 8v16a8 8 0 0 0 16 0v-16a8 8 0 0 0 -8-8z"/></svg>