<svg id="Capa_1" enable-background="new 0 0 511.992 511.992" height="512" viewBox="0 0 511.992 511.992" width="512" xmlns="http://www.w3.org/2000/svg"><g><g><path d="m189.369 55.353-3.519-11.15c-.12.004-.238.018-.359.018h-67.942c-.121 0-.239-.015-.359-.018l-3.519 11.15c-3.655 9.503-5.551 19.587-5.62 29.765l6.29 6.705h74.167l6.482-6.705c-.07-10.178-1.967-20.262-5.621-29.765z" fill="#fcc101"/><g fill="#f2ab08"><path d="m157.14 55.353 3.513-11.132h-43.105c-.121 0-.239-.015-.359-.018l-3.519 11.15c-3.655 9.503-5.551 19.587-5.62 29.765l6.29 6.705h43.469l-6.29-6.705c.07-10.178 1.966-20.262 5.621-29.765z"/><path d="m185.849 44.203c-.12.004-.238.018-.359.018h.365z"/></g><path d="m199.72 269.077v-4.084-30.952c0-6.942 5.627-12.569 12.569-12.569h5.037c-.011-.006-.02-.012-.031-.018-2.232-3.961-5.511-10.53-5.511-15.4 0-2.528.344-4.975.986-7.297-10.197-14.271-17.768-31.426-17.768-49.124v-63.938c0-.193-.012-.384-.013-.577h-86.938c-.001.193-.013.384-.013.577v63.938c0 20.903-7.746 41.065-21.741 56.591-13.997 15.526-21.742 35.687-21.742 56.59v6.262h135.165z" fill="#f4dd45"/><path d="m199.813 472.894c-.055-.786-.093-1.578-.093-2.378v-34.997h-135.165v35.677c0 18.199 14.753 32.952 32.952 32.952h54.014 56.013c4.556 0 8.896-.925 12.843-2.597-11.371-4.76-19.654-15.654-20.564-28.657z" fill="#f4dd45"/><path d="m131.774 206.223c12.724-15.526 19.766-35.688 19.766-56.591v-63.937c0-.193.011-.384.012-.577h-43.501c-.001.193-.013.384-.013.577v63.938c0 20.903-7.746 41.065-21.741 56.591-13.997 15.526-21.742 35.687-21.742 56.59v6.262h47.453v-6.262c-.001-20.903 7.041-41.064 19.766-56.591z" fill="#fcc101"/><path d="m112.007 471.195v-35.677h-47.452v35.677c0 18.199 14.753 32.952 32.952 32.952h44.459c-16.546 0-29.959-14.753-29.959-32.952z" fill="#fcc101"/><path d="m185.491 7.155h-67.941c-6.726 0-12.229 5.503-12.229 12.229v14.607c0 6.726 5.503 12.229 12.229 12.229h67.941c6.726 0 12.229-5.503 12.229-12.229v-14.607c0-6.726-5.503-12.229-12.229-12.229z" fill="#f87c68"/><path d="m148.789 34.373v-15.37c0-5.305 3.254-9.887 7.865-11.849h-39.104c-6.726 0-12.229 5.503-12.229 12.229v14.607c0 6.726 5.503 12.229 12.229 12.229h39.104c-4.611-1.96-7.865-6.541-7.865-11.846z" fill="#ec625e"/><path d="m64.555 264.993h134.953v174.61h-134.953z" fill="#f87c68"/><path d="m64.555 264.993h47.453v174.61h-47.453z" fill="#ec625e"/><path d="m64.555 303.277h134.953v98.041h-134.953z" fill="#ec625e"/><path d="m64.555 303.277h47.453v98.041h-47.453z" fill="#df4854"/><path d="m403.922 244.006h-35.631v30.574h35.631c6.931 0 12.569 5.638 12.569 12.569v142.527c0 6.931-5.638 12.57-12.569 12.57h-35.631v28.27c0 .775-.036 1.541-.087 2.303h35.718c23.789 0 43.142-19.354 43.142-43.143v-142.527c.001-23.789-19.353-43.143-43.142-43.143z" fill="#dbedff"/><g fill="#b5dcff"><path d="m400.391 244.006h-32.1v30.574h32.1c0-13.672 0-16.857 0-30.574z"/><path d="m400.391 442.245h-32.1v28.27c0 .775-.036 1.541-.087 2.303h32.1c.052-.762.087-1.528.087-2.303z"/></g><path d="m370.291 266.993v-34.952c0-6.942-5.627-12.569-12.569-12.569h-147.433c-6.942 0-12.569 5.627-12.569 12.569v34.952z" fill="#dbedff"/><path d="m247.632 219.472h-37.343c-6.942 0-12.569 5.627-12.569 12.569v34.952h37.343v-34.952c0-6.942 5.627-12.569 12.569-12.569z" fill="#b5dcff"/><path d="m369.858 475.894c.282-1.752.433-3.547.433-5.378v-205.523h-172.571v205.523c0 1.831.152 3.626.433 5.378z" fill="#fcc101"/><path d="m235.063 264.993h-37.343v205.523c0 1.831.152 3.626.433 5.378h37.343c-.282-1.752-.433-3.547-.433-5.378z" fill="#f2ab08"/><path d="m197.813 472.894c1.221 17.463 15.765 31.253 33.538 31.253h105.309c17.773 0 32.317-13.79 33.538-31.253z" fill="#f2ab08"/><path d="m235.156 472.894h-37.343c1.221 17.463 15.765 31.253 33.538 31.253h37.343c-17.773 0-32.317-13.79-33.538-31.253z" fill="#e1960f"/><circle cx="289.674" cy="326.671" fill="#ffe97b" r="13.27"/><circle cx="267.359" cy="384.57" fill="#ffe97b" r="25.478"/><path d="m288.892 326.671c0-5.071 2.846-9.474 7.026-11.707-1.861-.995-3.986-1.562-6.244-1.562-7.329 0-13.27 5.941-13.27 13.27s5.941 13.27 13.27 13.27c2.258 0 4.383-.568 6.244-1.562-4.18-2.236-7.026-6.639-7.026-11.709z" fill="#f4dd45"/><path d="m263.414 384.57c0-10.222 6.023-19.034 14.712-23.092-3.271-1.528-6.918-2.386-10.767-2.386-14.071 0-25.478 11.407-25.478 25.478s11.407 25.478 25.478 25.478c3.849 0 7.495-.858 10.767-2.386-8.689-4.058-14.712-12.87-14.712-23.092z" fill="#f4dd45"/><path d="m337.686 179.165c-3.554-.659-6.375-3.423-7.203-6.942-4.19-17.827-25.251-26.493-40.789-16.925-2.957 1.821-6.633 1.82-9.591.001-15.523-9.549-36.598-.917-40.788 16.925-.826 3.52-3.649 6.283-7.204 6.942-12.681 2.352-22.328 13.476-22.328 26.888 0 4.005.05 8.482 1.309 12.149.468 1.362 1.784 2.251 3.224 2.252l76.567.017c2.767 0 5.011 2.243 5.011 5.011v44.89c0 6.289 5.129 11.934 11.417 12.092 4.299.108 7.17-2.083 9.183-5.425.799-1.327 2.84-.755 2.84.794v16.613c0 6.471 5.062 12.039 11.533 12.14 6.558.102 11.907-5.183 11.907-11.718v-69.385c0-2.767 2.243-5.011 5.011-5.011l7.509-.014c1.448-.003 2.747-.91 3.231-2.275 1.302-3.663 1.49-8.132 1.49-12.13.001-13.41-9.644-24.537-22.329-26.889z" fill="#ffe5a0"/><g><g fill="#f2ce7e"><path d="m313.939 270.373v-44.89c0-2.767-2.243-5.011-5.011-5.011l-18.044-.004v.004c2.767 0 5.011 2.243 5.011 5.011v44.89c0 6.289 5.129 11.934 11.417 12.092 4.129.104 6.933-1.926 8.932-5.048-1.439-2.024-2.305-4.476-2.305-7.044z"/><path d="m232.362 220.454c-1.44 0-2.756-.889-3.224-2.252-1.259-3.667-1.309-8.144-1.309-12.149 0-13.412 9.646-24.536 22.328-26.888 3.555-.659 6.377-3.422 7.204-6.942 2.234-9.516 9.273-16.409 17.71-19.325-14.719-5.23-32.003 3.35-35.754 19.325-.826 3.52-3.649 6.283-7.204 6.942-12.681 2.352-22.328 13.476-22.328 26.888 0 4.005.05 8.482 1.309 12.149.468 1.362 1.784 2.251 3.224 2.252l18.044.004z"/></g></g></g><g><path d="m289.86 306.246c-11.452 0-20.77 9.317-20.77 20.77s9.317 20.771 20.77 20.771 20.771-9.317 20.771-20.771c0-11.453-9.318-20.77-20.771-20.77zm0 26.54c-3.182 0-5.77-2.589-5.77-5.771s2.588-5.77 5.77-5.77 5.771 2.588 5.771 5.77-2.589 5.771-5.771 5.771z"/><path d="m267.546 351.937c-18.185 0-32.979 14.794-32.979 32.979 0 18.184 14.794 32.978 32.979 32.978 18.184 0 32.978-14.794 32.978-32.978-.001-18.186-14.795-32.979-32.978-32.979zm0 50.956c-9.913 0-17.979-8.064-17.979-17.978s8.065-17.979 17.979-17.979 17.978 8.065 17.978 17.979-8.065 17.978-17.978 17.978z"/><path d="m447.251 352.154c4.143 0 7.5-3.357 7.5-7.5v-57.16c0-27.925-22.718-50.643-50.643-50.643h-26.131v-4.465c0-7.89-4.588-14.711-11.225-17.988.617-2.614.95-5.298.95-8 0-16.796-11.971-31.205-28.463-34.262-.596-.111-1.116-.639-1.269-1.284-2.549-10.846-10.027-19.566-20.517-23.927-10.361-4.308-22.14-3.437-31.507 2.333-.516.316-1.208.316-1.728-.002-9.372-5.767-21.156-6.632-31.522-2.318-10.481 4.361-17.952 13.078-20.497 23.917-.15.644-.673 1.171-1.269 1.281-8.189 1.518-15.262 5.838-20.309 11.857-5.212-10.536-7.934-22.098-7.934-34.017v-63.936c0-.189-.005-.377-.014-.653 0-.008-.001-.016-.001-.024-.095-12.896-2.594-23.194-6.812-34.16 5.709-3.461 9.545-9.716 9.545-16.866v-14.608c.001-10.878-8.849-19.729-19.728-19.729h-67.941c-10.879 0-19.729 8.851-19.729 19.729v14.607c0 7.15 3.836 13.405 9.545 16.866-4.182 10.872-6.725 21.198-6.815 34.209 0 .007.001.014.001.02 0 .023-.004.045-.004.068-.005.18-.01.359-.01.54v63.938c0 19.081-7.036 37.396-19.812 51.569-15.175 16.833-23.671 37.954-23.671 63.791v206.202c0 22.306 18.146 40.452 40.451 40.452h108.028c4.418 0 8.729-.715 12.862-2.103 4.299 1.431 8.723 2.103 12.956 2.103h105.31c19.128 0 35.495-13.217 39.941-31.328h27.321c27.925 0 50.643-22.719 50.643-50.644v-50.366c0-4.143-3.357-7.5-7.5-7.5s-7.5 3.357-7.5 7.5v50.366c0 19.654-15.989 35.644-35.643 35.644h-26.131v-15.573h26.131c11.066 0 20.069-9.004 20.069-20.07v-142.526c0-11.066-9.003-20.069-20.069-20.069h-26.131c0-8.916 0-6.73 0-15.573h26.131c19.653 0 35.643 15.989 35.643 35.643v57.16c-.002 4.142 3.355 7.499 7.498 7.499zm-236.775-124.837h78.106v30.521h-83.176v-25.451c0-2.795 2.275-5.07 5.07-5.07zm-20.07 166.846h-118.165v-83.041h118.165zm-118.165 15h118.165v23.284h-118.165zm133.165 56.575c0-9.809 0-181.34 0-192.9h83.426c1.445 8.95 9.13 16.158 18.315 16.465 1.692.055 3.324-.111 4.874-.491v4.979c0 10.666 8.485 19.476 18.916 19.64 10.458.197 19.523-8.219 19.523-19.218v-21.375h12.517v192.9zm152.502-238.421c2.795 0 5.069 2.274 5.069 5.069v25.451h-12.517v-30.521c4.384.001 3.06.001 7.448.001zm-124.242-40.432c6.465-1.198 11.622-6.146 13.138-12.602 1.43-6.089 5.679-11.009 11.656-13.496 6.019-2.506 12.544-2.051 17.9 1.245 5.305 3.263 12.155 3.262 17.452-.002 5.354-3.295 11.871-3.754 17.883-1.254 5.986 2.488 10.24 7.412 11.674 13.508 1.517 6.456 6.673 11.402 13.135 12.601h.001c9.386 1.74 16.197 9.946 16.197 19.514 0 2.013-.308 4.011-.904 5.919h-3.826c-6.898 0-12.511 5.612-12.511 12.511v69.385c0 2.183-1.667 4.167-4.288 4.22-2.251-.035-4.151-2.161-4.151-4.642v-16.612c0-9.131-12.043-12.441-16.778-4.64-1.105 1.821-1.825 1.796-2.596 1.771-2.241-.074-4.065-2.135-4.065-4.593 0-4.914 0-40.028 0-44.89 0-6.898-5.612-12.511-12.511-12.511h-72.694c-1.063-3.411-1.225-7.255-.25-10.973.016-.06.027-.121.043-.18 1.963-7.198 7.882-12.867 15.495-14.279zm-111.145-132.819h58.371c2.07 5.381 5.194 12.69 6.365 23.896h-71.103c1.155-11.036 4.163-18.166 6.367-23.896zm-9.515-34.337c0-2.563 2.166-4.729 4.729-4.729h67.941c2.563 0 4.729 2.166 4.729 4.729v14.607c0 2.518-2.093 4.642-4.598 4.716 0 0-.012-.001-.018-.001-.099.003-.197.008-.302.015h-67.565c-.101-.006-.201-.012-.303-.015 0 0-.012.001-.019.001-2.504-.075-4.596-2.198-4.596-4.716v-14.607zm-20.952 191.861c15.264-16.935 23.67-38.815 23.67-61.612l.002-57.015h71.963v57.015c0 18.146 5.263 35.603 15.252 50.701-.726 4.369-.586 8.85.299 12.988-7.687 2.98-12.833 10.472-12.833 18.72v25.451h-31.255c-4.143 0-7.5 3.357-7.5 7.5s3.357 7.5 7.5 7.5h31.255v23.284h-118.166v-23.284h51.91c4.143 0 7.5-3.357 7.5-7.5s-3.357-7.5-7.5-7.5h-51.706c1.181-17.143 8.026-33.399 19.609-46.248zm5.638 285.402c-14.034 0-25.451-11.418-25.451-25.452v-24.093h118.165v23.413c0 9.212 3.131 18.607 9.318 26.132zm133.845 0c-10.349 0-20.016-6.21-24.149-16.254h153.642c-4.003 9.752-13.57 16.254-24.183 16.254zm172.571-214.567c2.795 0 5.069 2.274 5.069 5.069v142.526c0 2.796-2.274 5.07-5.069 5.07h-26.131v-152.665z"/></g></g></svg>